<svg id="visual" viewBox="0 0 900 450" width="900" height="450" xmlns="http://www.w3.org/2000/svg" xmlns:xlink="http://www.w3.org/1999/xlink" version="1.1"><path d="M0 90L13.7 95C27.3 100 54.7 110 82 114.7C109.3 119.3 136.7 118.7 163.8 113.3C191 108 218 98 245.2 101C272.3 104 299.7 120 327 124.8C354.3 129.7 381.7 123.3 409 123.2C436.3 123 463.7 129 491 124.2C518.3 119.3 545.7 103.7 573 102.7C600.3 101.7 627.7 115.3 654.8 116.7C682 118 709 107 736.2 104C763.3 101 790.7 106 818 113.3C845.3 120.7 872.7 130.3 886.3 135.2L900 140L900 0L886.3 0C872.7 0 845.3 0 818 0C790.7 0 763.3 0 736.2 0C709 0 682 0 654.8 0C627.7 0 600.3 0 573 0C545.7 0 518.3 0 491 0C463.7 0 436.3 0 409 0C381.7 0 354.3 0 327 0C299.7 0 272.3 0 245.2 0C218 0 191 0 163.8 0C136.7 0 109.3 0 82 0C54.7 0 27.3 0 13.7 0L0 0Z" fill="#3a1d65"></path><path d="M0 95L13.7 94.3C27.3 93.7 54.7 92.3 82 87C109.3 81.7 136.7 72.3 163.8 69.8C191 67.3 218 71.7 245.2 74.7C272.3 77.7 299.7 79.3 327 77.3C354.3 75.3 381.7 69.7 409 68.3C436.3 67 463.7 70 491 76.5C518.3 83 545.7 93 573 96.8C600.3 100.7 627.7 98.3 654.8 95.2C682 92 709 88 736.2 87.5C763.3 87 790.7 90 818 91.3C845.3 92.7 872.7 92.3 886.3 92.2L900 92L900 0L886.3 0C872.7 0 845.3 0 818 0C790.7 0 763.3 0 736.2 0C709 0 682 0 654.8 0C627.7 0 600.3 0 573 0C545.7 0 518.3 0 491 0C463.7 0 436.3 0 409 0C381.7 0 354.3 0 327 0C299.7 0 272.3 0 245.2 0C218 0 191 0 163.8 0C136.7 0 109.3 0 82 0C54.7 0 27.3 0 13.7 0L0 0Z" fill="#311854"></path><path d="M0 45L13.7 49.8C27.3 54.7 54.7 64.3 82 65.2C109.3 66 136.7 58 163.8 59.7C191 61.3 218 72.7 245.2 72.8C272.3 73 299.7 62 327 58.3C354.3 54.7 381.7 58.3 409 57.7C436.3 57 463.7 52 491 52.8C518.3 53.7 545.7 60.3 573 66.5C600.3 72.7 627.7 78.3 654.8 76.8C682 75.3 709 66.7 736.2 66.5C763.3 66.3 790.7 74.7 818 72.7C845.3 70.7 872.7 58.3 886.3 52.2L900 46L900 0L886.3 0C872.7 0 845.3 0 818 0C790.7 0 763.3 0 736.2 0C709 0 682 0 654.8 0C627.7 0 600.3 0 573 0C545.7 0 518.3 0 491 0C463.7 0 436.3 0 409 0C381.7 0 354.3 0 327 0C299.7 0 272.3 0 245.2 0C218 0 191 0 163.8 0C136.7 0 109.3 0 82 0C54.7 0 27.3 0 13.7 0L0 0Z" fill="#271444"></path><path d="M0 42L13.7 40.2C27.3 38.3 54.7 34.7 82 31C109.3 27.3 136.7 23.7 163.8 23.7C191 23.7 218 27.3 245.2 32.7C272.3 38 299.7 45 327 43.5C354.3 42 381.7 32 409 31.3C436.3 30.7 463.7 39.3 491 40.3C518.3 41.3 545.7 34.7 573 34.2C600.3 33.7 627.7 39.3 654.8 38.2C682 37 709 29 736.2 26C763.3 23 790.7 25 818 28.5C845.3 32 872.7 37 886.3 39.5L900 42L900 0L886.3 0C872.7 0 845.3 0 818 0C790.7 0 763.3 0 736.2 0C709 0 682 0 654.8 0C627.7 0 600.3 0 573 0C545.7 0 518.3 0 491 0C463.7 0 436.3 0 409 0C381.7 0 354.3 0 327 0C299.7 0 272.3 0 245.2 0C218 0 191 0 163.8 0C136.7 0 109.3 0 82 0C54.7 0 27.3 0 13.7 0L0 0Z" fill="#1e0f35"></path></svg>