<svg id="visual" viewBox="0 0 960 540" width="960" height="540" xmlns="http://www.w3.org/2000/svg" xmlns:xlink="http://www.w3.org/1999/xlink" version="1.1"><path d="M0 109L22.8 107C45.7 105 91.3 101 137 104.7C182.7 108.3 228.3 119.7 274 125.5C319.7 131.3 365.3 131.7 411.2 124.8C457 118 503 104 548.8 101.2C594.7 98.3 640.3 106.7 686 113.8C731.7 121 777.3 127 823 126.3C868.7 125.7 914.3 118.3 937.2 114.7L960 111L960 0L937.2 0C914.3 0 868.7 0 823 0C777.3 0 731.7 0 686 0C640.3 0 594.7 0 548.8 0C503 0 457 0 411.2 0C365.3 0 319.7 0 274 0C228.3 0 182.7 0 137 0C91.3 0 45.7 0 22.8 0L0 0Z" fill="#6082d8"></path><path d="M0 65L22.8 72.5C45.7 80 91.3 95 137 98.7C182.7 102.3 228.3 94.7 274 92.3C319.7 90 365.3 93 411.2 94.8C457 96.7 503 97.3 548.8 93.5C594.7 89.7 640.3 81.3 686 77.3C731.7 73.3 777.3 73.7 823 79.7C868.7 85.7 914.3 97.3 937.2 103.2L960 109L960 0L937.2 0C914.3 0 868.7 0 823 0C777.3 0 731.7 0 686 0C640.3 0 594.7 0 548.8 0C503 0 457 0 411.2 0C365.3 0 319.7 0 274 0C228.3 0 182.7 0 137 0C91.3 0 45.7 0 22.8 0L0 0Z" fill="#516fbf"></path><path d="M0 69L22.8 66.3C45.7 63.7 91.3 58.3 137 55.7C182.7 53 228.3 53 274 58C319.7 63 365.3 73 411.2 73.3C457 73.7 503 64.3 548.8 59.7C594.7 55 640.3 55 686 53.7C731.7 52.3 777.3 49.7 823 53.7C868.7 57.7 914.3 68.3 937.2 73.7L960 79L960 0L937.2 0C914.3 0 868.7 0 823 0C777.3 0 731.7 0 686 0C640.3 0 594.7 0 548.8 0C503 0 457 0 411.2 0C365.3 0 319.7 0 274 0C228.3 0 182.7 0 137 0C91.3 0 45.7 0 22.8 0L0 0Z" fill="#425da6"></path><path d="M0 58L22.8 55.7C45.7 53.3 91.3 48.7 137 48.2C182.7 47.7 228.3 51.3 274 50.3C319.7 49.3 365.3 43.7 411.2 42.5C457 41.3 503 44.7 548.8 48.8C594.7 53 640.3 58 686 60.3C731.7 62.7 777.3 62.3 823 57.5C868.7 52.7 914.3 43.3 937.2 38.7L960 34L960 0L937.2 0C914.3 0 868.7 0 823 0C777.3 0 731.7 0 686 0C640.3 0 594.7 0 548.8 0C503 0 457 0 411.2 0C365.3 0 319.7 0 274 0C228.3 0 182.7 0 137 0C91.3 0 45.7 0 22.8 0L0 0Z" fill="#334c8e"></path><path d="M0 13L22.8 14.5C45.7 16 91.3 19 137 20.5C182.7 22 228.3 22 274 20.5C319.7 19 365.3 16 411.2 15.3C457 14.7 503 16.3 548.8 19.5C594.7 22.7 640.3 27.3 686 27.8C731.7 28.3 777.3 24.7 823 24.8C868.7 25 914.3 29 937.2 31L960 33L960 0L937.2 0C914.3 0 868.7 0 823 0C777.3 0 731.7 0 686 0C640.3 0 594.7 0 548.8 0C503 0 457 0 411.2 0C365.3 0 319.7 0 274 0C228.3 0 182.7 0 137 0C91.3 0 45.7 0 22.8 0L0 0Z" fill="#233b77"></path></svg>